<svg width="139" height="133" viewBox="0 0 139 133" fill="none" xmlns="http://www.w3.org/2000/svg">
<path d="M59.891 75.6211C56.446 72.5641 50.338 74.0171 46.422 75.2491C43.969 76.0201 41.601 77.0591 39.292 78.1811C36.979 79.3051 34.642 80.4671 32.572 82.0051C28.936 84.7071 26.417 88.7061 27.175 93.3651C27.588 95.9001 28.778 98.2041 29.627 100.605C30.6 103.359 30.765 106.009 29.924 108.827C29.203 111.242 27.292 113.681 27.846 116.311C28.288 118.413 29.798 119.885 31.71 120.773C34.541 122.089 38.648 121.682 41.377 120.285C45.1 118.38 47.976 114.717 48.905 110.635C49.463 108.185 49.267 105.668 49.462 103.182C49.662 100.64 50.649 98.4521 52.274 96.5021C55.186 93.0071 59.235 90.3921 61.276 86.2091C62.909 82.8591 62.868 78.2631 59.891 75.6211Z" fill="#FAE4AB"/>
<path d="M61.784 61.2263C61.423 56.8373 59.882 52.6583 58.166 48.6393C56.425 44.5633 54.385 40.6153 52.068 36.8363C50.068 33.5743 47.784 30.1853 44.388 28.2383C41.656 26.6713 38.088 26.3193 35.249 27.8313C33.81 28.5983 32.751 29.8503 32.179 31.3723C31.508 33.1573 31.562 35.1233 31.536 36.9993C31.521 38.0283 31.498 39.0673 31.31 40.0823C31.116 41.1233 30.746 42.1163 30.323 43.0833C29.49 44.9903 28.564 46.8333 28.272 48.9183C27.733 52.7713 28.966 56.7363 31.669 59.5453C34.48 62.4663 38.283 63.5983 42.261 63.5683C46.375 63.5363 50.626 62.6303 54.643 63.9343C55.597 64.2443 56.486 64.6933 57.278 65.3093C57.29 65.3183 57.302 65.3203 57.314 65.3273C57.984 66.1093 59.247 66.2493 60.194 65.7763C61.825 64.9613 61.914 62.8023 61.784 61.2263Z" fill="#FAE4AB"/>
<path d="M26.0449 15.6932C23.1039 11.9722 17.701 10.7452 13.626 13.4032C11.478 14.8042 10.1439 17.0622 9.98594 19.6242C9.91994 20.7022 10.0789 21.7942 10.4299 22.8142C10.7489 25.2042 11.8029 27.4642 13.7019 29.0592C17.1179 31.9262 22.6959 32.1882 25.8729 28.8082C29.2569 25.2072 29.0109 19.4462 26.0449 15.6932Z" fill="#FAE4AB"/>
<path d="M21.0709 93.4412C20.6919 92.3262 20.05 91.3162 19.044 90.6712C18.039 90.0282 16.8199 89.9182 15.7479 90.4592C15.1529 90.7592 14.65 91.2252 14.177 91.6872C13.675 92.1762 13.2089 92.7042 12.9219 93.3512C12.6619 93.9372 12.532 94.5852 12.529 95.2332C12.231 96.8382 12.7519 98.5452 14.0919 99.6102C15.7589 100.936 18.146 100.99 19.811 99.6412C20.625 98.9812 21.2389 98.0242 21.4459 96.9922C21.6799 95.8302 21.4489 94.5532 21.0709 93.4412Z" fill="#FAE4AB"/>
<path d="M64.683 77.4531C63.7 75.9161 62.227 74.4551 60.584 73.6361C58.729 72.7111 56.482 72.3991 54.442 72.1871C51.943 71.9281 49.418 71.9691 46.915 72.1541C42.021 72.5161 37.259 73.5361 32.444 74.4181C27.26 75.3691 21.558 75.7501 17.228 72.1811C13.165 68.8321 11.419 63.6011 11.08 58.4931C10.715 52.9961 12.151 47.5201 11.574 42.0401C11.043 37.0021 8.18998 33.1591 5.43398 29.0911C2.58198 24.8831 -0.193022 19.3421 2.74198 14.4441C5.37198 10.0541 10.658 8.39514 15.526 8.72114C18.851 8.94314 22.15 9.88914 25.291 11.1741C23.053 11.1091 20.877 11.7791 19.49 13.6801C16.815 17.3461 19.789 22.4381 21.543 25.8351C22.585 27.8521 23.66 29.9281 23.965 32.2061C24.297 34.6811 23.466 36.9691 22.397 39.1621C21.434 41.1401 20.319 43.0761 19.742 45.2151C19.127 47.4931 19.231 49.8831 19.794 52.1611C20.906 56.6621 23.532 61.3301 26.62 64.7821C27.992 66.3161 29.644 67.6221 31.579 68.3621C33.955 69.2711 36.542 69.2391 39.036 68.9931C41.708 68.7301 44.349 68.3191 47.036 68.2221C49.813 68.1221 52.599 68.2371 55.358 68.5721C58.143 68.9101 64.221 70.6271 64.195 65.9151C64.181 63.4661 63.562 60.8721 63.076 58.4831C62.57 55.9921 61.939 53.5271 61.184 51.1001C59.691 46.3001 57.704 41.6351 55.268 37.2381C50.741 29.0681 44.45 21.8991 36.804 16.5161C34.926 15.1931 32.968 13.9861 30.944 12.9011C30.904 12.8121 30.842 12.7291 30.731 12.6681C30.127 12.3411 29.46 12.0521 28.76 11.8151C27.378 11.1501 25.978 10.5221 24.544 9.97614C19.918 8.21414 14.718 6.97614 9.80698 8.25914C6.14098 9.21714 2.67098 11.7331 1.19898 15.3031C-0.673022 19.8411 1.36898 24.6941 3.85598 28.5501C6.67498 32.9201 10.07 36.8751 10.585 42.2651C11.102 47.6731 9.71797 53.0691 10.077 58.4931C10.377 63.0251 11.686 67.5481 14.673 71.0561C17.676 74.5811 21.934 76.1731 26.509 76.1081C31.502 76.0371 36.391 74.5571 41.307 73.8261C46.219 73.0951 51.372 72.6111 56.297 73.4941C58.55 73.8981 60.53 74.5231 62.208 76.1381C64.104 77.9641 64.854 79.9821 64.656 82.6381C64.295 87.4941 61.689 91.8791 59.191 95.9251C56.814 99.7761 54.291 103.627 52.99 108.004C51.507 112.992 51.638 118.445 49.366 123.2C48.365 125.295 46.911 127.154 45.136 128.649C44.249 129.396 43.269 130.067 42.233 130.593C41.448 130.991 40.626 131.341 39.775 130.895C39.202 130.594 38.731 130.07 38.312 129.585C37.046 128.121 36.085 126.274 34.211 125.492C33.31 125.116 32.348 125.076 31.387 125.027C29.971 124.953 28.686 124.751 27.433 124.045C25.219 122.798 23.983 120.686 23.549 118.23C23.135 115.886 23.25 113.432 22.386 111.179C20.865 107.215 15.342 105.42 16.241 100.588C16.464 99.3871 16.907 98.2401 17.193 97.0551C17.511 95.7381 17.582 94.3991 17.561 93.0481C17.521 90.3791 17.229 87.6681 18.424 85.1811C20.331 81.2141 24.289 79.0891 28.383 77.9661C26.304 79.2751 24.594 81.2051 23.55 83.4141C22.558 85.5121 22.082 87.8181 22.022 90.1321C21.952 92.8281 22.722 95.3231 23.025 97.9721C23.313 100.49 22.855 103.01 23.428 105.508C23.905 107.586 24.878 109.54 26.217 111.196C27.626 112.939 29.415 114.107 31.321 115.239C32.412 115.887 33.515 116.538 34.454 117.401C35.314 118.191 35.911 119.159 36.527 120.138C37.458 121.616 38.555 123.185 40.405 123.497C42.167 123.794 43.92 122.83 45.043 121.525C46.499 119.832 46.886 117.52 47.201 115.384C47.596 112.702 48.116 110.064 48.919 107.472C50.582 102.105 53.304 97.2281 56.536 92.6571C58.896 89.3191 63.783 84.5831 61.785 80.0541C60.116 76.2691 54.971 75.7281 51.398 75.4051C45.591 74.8811 39.719 75.3671 33.946 76.0541C29.272 76.6101 24.446 77.5591 20.744 80.6681C19.206 81.9591 17.935 83.5891 17.198 85.4661C16.24 87.9051 16.492 90.4901 16.524 93.0491C16.542 94.5381 16.417 95.9641 16.018 97.4021C15.7 98.5501 15.29 99.6761 15.132 100.863C14.86 102.901 15.541 104.621 16.87 106.143C18.255 107.731 20.096 108.971 21.072 110.886C22.202 113.101 22.051 115.73 22.425 118.129C23.07 122.269 25.985 125.64 30.302 126.06C31.635 126.19 33.051 126.032 34.255 126.732C35.238 127.304 35.925 128.285 36.601 129.169C37.655 130.547 39.007 132.436 40.979 132.215C42.908 131.998 44.956 130.303 46.344 129.046C47.984 127.56 49.352 125.749 50.309 123.752C52.57 119.032 52.532 113.687 53.917 108.717C56.415 99.7581 64.302 93.0991 65.612 83.7091C65.902 81.6181 65.853 79.2831 64.683 77.4531ZM52.749 67.3301C49.977 67.1171 47.19 67.1201 44.419 67.3411C41.745 67.5541 39.085 68.0731 36.396 68.0621C33.612 68.0511 31.046 67.2881 28.916 65.4561C27.095 63.8891 25.717 61.8711 24.488 59.8271C21.672 55.1471 19.239 49.6841 21.287 44.2341C21.644 43.2841 22.075 42.3641 22.519 41.4521C26.232 39.1231 30.99 40.8551 34.562 42.7431C38.209 44.6711 41.722 46.8621 45.011 49.3531C51.792 54.4871 57.158 60.8841 61.775 67.9841C61.792 68.0101 61.813 68.0261 61.834 68.0451C61.323 68.2081 60.75 68.2561 60.219 68.2501C57.736 68.2201 55.233 67.5201 52.749 67.3301ZM62.339 67.8251C62.338 67.7781 62.329 67.7281 62.3 67.6761C58.923 61.6091 54.263 56.2321 49.005 51.7191C46.392 49.4771 43.618 47.4281 40.71 45.5851C37.832 43.7601 34.812 41.9361 31.586 40.7981C28.728 39.7901 25.515 39.3681 22.83 40.8141C24.229 37.9651 25.613 35.1621 25.09 31.7931C24.395 27.3171 21.198 23.7731 19.985 19.4741C19.808 18.8481 19.7 18.2171 19.665 17.6011C24.382 17.5661 28.906 20.1461 32.568 22.9061C36.149 25.6041 39.471 28.7531 42.594 31.9631C48.689 38.2261 53.91 45.3121 57.66 53.2241C58.744 55.5101 59.708 57.8511 60.543 60.2401C61.375 62.6191 61.935 65.1081 62.796 67.4741C62.664 67.6161 62.507 67.7281 62.339 67.8251ZM51.951 33.1371C57.871 41.9271 61.461 52.1031 62.928 62.5731C63.101 63.8071 63.536 65.4161 63.232 66.6491C63.211 66.7351 63.173 66.8041 63.143 66.8821C62.823 64.8771 62.175 62.8861 61.543 60.9791C60.823 58.8091 60.001 56.6731 59.081 54.5801C57.225 50.3571 54.938 46.3271 52.306 42.5401C47.157 35.1301 40.669 28.4551 33.537 22.9321C29.658 19.9291 24.734 17.0251 19.653 17.2311C19.643 15.2551 20.478 13.4871 22.629 12.6441C25.036 11.7001 28.001 12.4031 30.192 13.5921C30.303 13.6521 30.409 13.6601 30.51 13.6471C30.534 13.6601 30.558 13.6721 30.582 13.6841C39.169 18.2591 46.523 25.0791 51.951 33.1371ZM24.091 98.4301C23.998 97.1891 23.722 95.9731 23.486 94.7541C23.546 94.7311 23.605 94.6971 23.66 94.6441C28.087 90.4071 32.612 86.4981 37.847 83.2781C40.321 81.7561 42.876 80.3631 45.493 79.1041C48.252 77.7771 51.082 76.4351 54.187 76.3491C55.329 76.5181 56.455 76.7711 57.473 77.1551C55.856 77.5651 54.299 78.0271 52.789 78.7911C51.101 79.6451 49.537 80.7221 48.025 81.8551C44.889 84.2051 41.926 86.7801 39.183 89.5791C33.759 95.1141 29.058 101.472 25.548 108.388C24.621 106.586 24.119 104.602 24.086 102.561C24.066 101.184 24.195 99.8061 24.091 98.4301ZM36.474 118.379C35.276 116.628 33.584 115.505 31.794 114.43C29.597 113.111 27.61 111.706 26.196 109.519C26.114 109.393 26.043 109.262 25.966 109.134C29.402 102.245 33.684 95.8631 39.018 90.2981C41.667 87.5351 44.526 84.9831 47.559 82.6481C50.604 80.3041 54.192 77.7361 58.159 77.4491C58.762 77.7301 59.311 78.0671 59.787 78.4701C53.807 81.0151 49.361 86.4021 45.965 91.7791C42.304 97.5761 39.913 104.149 38.935 110.933C38.425 114.471 38.357 118.034 38.688 121.588C37.791 120.675 37.153 119.371 36.474 118.379ZM58.571 88.7571C57.016 90.8811 55.454 93.0011 54.013 95.2061C51.094 99.6751 48.825 104.509 47.489 109.688C46.849 112.17 46.615 114.709 46.063 117.204C45.526 119.631 44.066 122.595 41.184 122.683C40.406 122.707 39.769 122.462 39.224 122.063C38.509 113.695 40.084 105.25 43.527 97.6051C45.258 93.7621 47.453 90.1561 50.15 86.9131C52.931 83.5681 56.136 80.4751 60.294 78.9681C60.794 79.5201 61.185 80.1631 61.394 80.9431C62.162 83.8011 60.168 86.5751 58.571 88.7571ZM47.987 75.9741C49.046 75.9941 50.408 76.0051 51.855 76.1021C49.973 76.5091 48.119 77.4041 46.46 78.1771C43.564 79.5261 40.744 81.0391 38.017 82.7041C32.845 85.8611 27.71 89.4491 23.29 93.6151C22.941 91.2641 22.942 88.8721 23.517 86.5471C24.533 82.4381 27.581 78.5821 31.669 77.2711C37.009 76.3271 42.585 75.8751 47.987 75.9741Z" fill="#261E42"/>
<path d="M77.3891 86.2102C79.4301 90.3932 83.4791 93.0082 86.3911 96.5032C88.0161 98.4532 89.0031 100.641 89.2021 103.183C89.3981 105.669 89.2021 108.185 89.7591 110.636C90.6881 114.718 93.564 118.381 97.287 120.286C100.016 121.683 104.123 122.09 106.954 120.774C108.865 119.886 110.375 118.413 110.818 116.312C111.372 113.682 109.461 111.244 108.74 108.828C107.899 106.01 108.063 103.36 109.037 100.606C109.886 98.2052 111.077 95.9022 111.489 93.3662C112.247 88.7082 109.729 84.7082 106.092 82.0062C104.022 80.4682 101.684 79.3062 99.3721 78.1822C97.0621 77.0592 94.6941 76.0212 92.2421 75.2502C88.3261 74.0182 82.2181 72.5642 78.7731 75.6222C75.7951 78.2632 75.7541 82.8592 77.3891 86.2102Z" fill="#FAE4AB"/>
<path d="M78.4712 65.7763C79.4182 66.2483 80.6812 66.1083 81.3512 65.3273C81.3632 65.3203 81.3752 65.3183 81.3872 65.3093C82.1802 64.6923 83.0682 64.2433 84.0222 63.9343C88.0382 62.6303 92.2892 63.5363 96.4042 63.5683C100.381 63.5993 104.185 62.4673 106.996 59.5453C109.7 56.7363 110.933 52.7713 110.393 48.9183C110.101 46.8333 109.175 44.9903 108.342 43.0833C107.92 42.1163 107.549 41.1223 107.356 40.0823C107.167 39.0673 107.144 38.0283 107.13 36.9993C107.103 35.1233 107.157 33.1573 106.487 31.3723C105.915 29.8503 104.856 28.5973 103.417 27.8313C100.578 26.3193 97.0102 26.6713 94.2782 28.2383C90.8822 30.1863 88.5982 33.5753 86.5982 36.8363C84.2812 40.6153 82.2412 44.5633 80.5002 48.6393C78.7832 52.6583 77.2432 56.8373 76.8822 61.2263C76.7502 62.8023 76.8382 64.9613 78.4712 65.7763Z" fill="#FAE4AB"/>
<path d="M112.789 28.8072C115.966 32.1882 121.544 31.9252 124.96 29.0582C126.86 27.4632 127.913 25.2042 128.232 22.8132C128.584 21.7932 128.743 20.7012 128.676 19.6232C128.518 17.0612 127.185 14.8032 125.036 13.4022C120.961 10.7442 115.558 11.9712 112.617 15.6922C109.652 19.4462 109.406 25.2072 112.789 28.8072Z" fill="#FAE4AB"/>
<path d="M117.217 96.9942C117.424 98.0262 118.038 98.9832 118.852 99.6432C120.517 100.992 122.904 100.937 124.571 99.6122C125.91 98.5472 126.432 96.8402 126.134 95.2352C126.13 94.5872 126 93.9392 125.741 93.3532C125.455 92.7062 124.988 92.1782 124.486 91.6892C124.013 91.2282 123.51 90.7622 122.915 90.4612C121.843 89.9202 120.623 90.0292 119.619 90.6732C118.613 91.3172 117.971 92.3282 117.592 93.4432C117.214 94.5532 116.984 95.8302 117.217 96.9942Z" fill="#FAE4AB"/>
<path d="M73.052 83.7071C74.362 93.0971 82.249 99.7561 84.747 108.715C86.133 113.686 86.094 119.03 88.355 123.75C89.312 125.747 90.679 127.558 92.32 129.044C93.708 130.302 95.756 131.997 97.685 132.213C99.657 132.434 101.009 130.545 102.063 129.167C102.739 128.283 103.426 127.302 104.409 126.73C105.612 126.03 107.029 126.187 108.362 126.058C112.68 125.638 115.594 122.267 116.239 118.127C116.613 115.728 116.463 113.099 117.592 110.884C118.568 108.969 120.409 107.729 121.794 106.141C123.123 104.618 123.803 102.899 123.532 100.861C123.374 99.6741 122.964 98.5491 122.646 97.4001C122.247 95.9621 122.121 94.5361 122.14 93.0471C122.172 90.4871 122.424 87.9031 121.466 85.4641C120.729 83.5871 119.457 81.9571 117.92 80.6661C114.217 77.5571 109.391 76.6081 104.717 76.0521C98.944 75.3651 93.072 74.8781 87.265 75.4031C83.692 75.7251 78.5479 76.2671 76.8779 80.0521C74.8809 84.5811 79.7669 89.3171 82.1279 92.6551C85.36 97.2261 88.0819 102.103 89.7439 107.47C90.5469 110.063 91.067 112.701 91.462 115.382C91.777 117.519 92.164 119.83 93.62 121.523C94.742 122.827 96.496 123.792 98.258 123.495C100.108 123.183 101.205 121.614 102.136 120.136C102.752 119.157 103.349 118.19 104.209 117.399C105.148 116.536 106.251 115.885 107.342 115.237C109.248 114.105 111.036 112.937 112.446 111.194C113.785 109.538 114.758 107.584 115.235 105.506C115.808 103.008 115.35 100.488 115.638 97.9701C115.941 95.3221 116.711 92.8261 116.641 90.1301C116.581 87.8161 116.105 85.5111 115.113 83.4121C114.069 81.2031 112.358 79.2731 110.28 77.9641C114.374 79.0871 118.332 81.2121 120.239 85.1791C121.434 87.6661 121.142 90.3771 121.102 93.0461C121.082 94.3971 121.153 95.7351 121.47 97.0531C121.756 98.2381 122.199 99.3851 122.422 100.586C123.32 105.418 117.797 107.213 116.277 111.177C115.413 113.43 115.528 115.884 115.114 118.228C114.68 120.684 113.444 122.796 111.23 124.043C109.977 124.749 108.692 124.951 107.276 125.025C106.315 125.075 105.353 125.114 104.452 125.49C102.578 126.273 101.617 128.119 100.351 129.583C99.932 130.068 99.461 130.592 98.888 130.893C98.037 131.34 97.215 130.99 96.431 130.591C95.395 130.065 94.415 129.395 93.527 128.647C91.752 127.152 90.298 125.292 89.297 123.198C87.025 118.443 87.156 112.99 85.673 108.002C84.372 103.624 81.8489 99.7741 79.4719 95.9231C76.9739 91.8771 74.3689 87.4921 74.0069 82.6361C73.8089 79.9801 74.5589 77.9621 76.4549 76.1361C78.1329 74.5201 80.113 73.8951 82.366 73.4921C87.291 72.6091 92.4439 73.0931 97.3559 73.8241C102.272 74.5561 107.161 76.0351 112.154 76.1061C116.729 76.1711 120.987 74.5791 123.99 71.0541C126.978 67.5471 128.286 63.0231 128.586 58.4911C128.945 53.0671 127.561 47.6721 128.078 42.2631C128.593 36.8741 131.987 32.9191 134.807 28.5481C137.294 24.6921 139.336 19.8401 137.464 15.3011C135.992 11.7311 132.523 9.21614 128.856 8.25714C123.945 6.97314 118.745 8.21214 114.119 9.97414C112.685 10.5201 111.286 11.1491 109.904 11.8131C109.204 12.0501 108.537 12.3391 107.933 12.6661C107.822 12.7261 107.76 12.8101 107.72 12.8991C105.696 13.9841 103.738 15.1911 101.86 16.5141C94.2149 21.8981 87.923 29.0661 83.396 37.2361C80.96 41.6331 78.973 46.2991 77.48 51.0981C76.725 53.5251 76.094 55.9901 75.588 58.4811C75.103 60.8701 74.483 63.4631 74.469 65.9131C74.443 70.6251 80.52 68.9081 83.306 68.5701C86.065 68.2351 88.851 68.1201 91.628 68.2201C94.316 68.3171 96.956 68.7281 99.628 68.9911C102.122 69.2371 104.709 69.2681 107.085 68.3601C109.02 67.6201 110.672 66.3131 112.044 64.7801C115.132 61.3281 117.758 56.6601 118.87 52.1591C119.433 49.8811 119.537 47.4921 118.922 45.2131C118.344 43.0751 117.23 41.1381 116.267 39.1601C115.199 36.9681 114.368 34.6791 114.699 32.2041C115.004 29.9261 116.079 27.8491 117.121 25.8331C118.875 22.4361 121.849 17.3431 119.174 13.6781C117.787 11.7771 115.611 11.1061 113.373 11.1721C116.514 9.88714 119.812 8.94214 123.137 8.71914C128.004 8.39314 133.291 10.0521 135.921 14.4421C138.856 19.3401 136.08 24.8811 133.229 29.0891C130.473 33.1561 127.619 36.9991 127.089 42.0381C126.512 47.5181 127.947 52.9941 127.582 58.4911C127.243 63.5991 125.497 68.8301 121.434 72.1791C117.104 75.7481 111.402 75.3671 106.218 74.4161C101.403 73.5331 96.641 72.5141 91.747 72.1521C89.245 71.9671 86.719 71.9251 84.221 72.1851C82.181 72.3971 79.934 72.7091 78.079 73.6341C76.436 74.4531 74.963 75.9151 73.98 77.4511C72.81 79.2831 72.761 81.6181 73.052 83.7071ZM78.446 68.2501C77.915 68.2561 77.341 68.2081 76.831 68.0451C76.851 68.0261 76.873 68.0101 76.89 67.9841C81.506 60.8831 86.873 54.4861 93.654 49.3531C96.944 46.8621 100.456 44.6711 104.103 42.7431C107.674 40.8551 112.433 39.1221 116.146 41.4521C116.59 42.3631 117.021 43.2841 117.378 44.2341C119.426 49.6841 116.993 55.1471 114.177 59.8271C112.947 61.8711 111.57 63.8891 109.748 65.4561C107.618 67.2881 105.052 68.0511 102.268 68.0621C99.579 68.0731 96.919 67.5541 94.245 67.3411C91.474 67.1201 88.686 67.1181 85.915 67.3301C83.43 67.5201 80.927 68.2201 78.446 68.2501ZM75.867 67.4731C76.728 65.1071 77.287 62.6191 78.12 60.2391C78.956 57.8511 79.92 55.5101 81.004 53.2231C84.754 45.3111 89.975 38.2251 96.07 31.9621C99.193 28.7521 102.516 25.6031 106.097 22.9051C109.759 20.1461 114.282 17.5651 119 17.6001C118.965 18.2161 118.857 18.8461 118.68 19.4731C117.467 23.7721 114.27 27.3161 113.575 31.7921C113.052 35.1621 114.435 37.9641 115.835 40.8131C113.15 39.3681 109.937 39.7891 107.079 40.7971C103.852 41.9351 100.833 43.7601 97.954 45.5841C95.046 47.4271 92.272 49.4761 89.66 51.7181C84.401 56.2311 79.7419 61.6081 76.3649 67.6751C76.3359 67.7271 76.3269 67.7761 76.3259 67.8241C76.1559 67.7281 75.999 67.6161 75.867 67.4731ZM108.082 13.6831C108.106 13.6701 108.13 13.6581 108.154 13.6461C108.254 13.6591 108.36 13.6521 108.472 13.5911C110.663 12.4021 113.629 11.6991 116.036 12.6431C118.187 13.4871 119.021 15.2541 119.011 17.2301C113.931 17.0241 109.006 19.9281 105.127 22.9311C97.994 28.4531 91.507 35.1291 86.357 42.5391C83.725 46.3261 81.438 50.3561 79.582 54.5791C78.662 56.6721 77.84 58.8081 77.121 60.9781C76.488 62.8861 75.8399 64.8761 75.5199 66.8811C75.4899 66.8031 75.453 66.7341 75.431 66.6481C75.127 65.4151 75.5619 63.8061 75.7349 62.5721C77.2019 52.1031 80.791 41.9261 86.712 33.1361C92.14 25.0791 99.495 18.2591 108.082 13.6831ZM114.575 102.561C114.542 104.602 114.04 106.586 113.113 108.388C109.603 101.472 104.902 95.1141 99.478 89.5791C96.735 86.7801 93.7719 84.2051 90.6359 81.8551C89.1239 80.7221 87.56 79.6451 85.872 78.7911C84.362 78.0271 82.8049 77.5661 81.1879 77.1551C82.2059 76.7711 83.332 76.5181 84.474 76.3491C87.58 76.4351 90.409 77.7761 93.168 79.1041C95.785 80.3631 98.34 81.7561 100.814 83.2781C106.05 86.4981 110.575 90.4061 115.001 94.6441C115.056 94.6971 115.116 94.7311 115.175 94.7541C114.939 95.9731 114.663 97.1891 114.57 98.4301C114.469 99.8061 114.598 101.184 114.575 102.561ZM99.9769 121.588C100.308 118.034 100.24 114.471 99.73 110.933C98.753 104.149 96.362 97.5751 92.7 91.7791C89.303 86.4021 84.858 81.0151 78.8779 78.4701C79.3539 78.0671 79.902 77.7301 80.506 77.4491C84.473 77.7361 88.0609 80.3041 91.1059 82.6481C94.1389 84.9831 96.998 87.5341 99.647 90.2981C104.981 95.8621 109.262 102.244 112.699 109.134C112.622 109.262 112.55 109.393 112.469 109.519C111.055 111.706 109.068 113.111 106.871 114.43C105.08 115.506 103.389 116.629 102.191 118.379C101.511 119.371 100.872 120.675 99.9769 121.588ZM77.269 80.9421C77.478 80.1621 77.8689 79.5181 78.3689 78.9671C82.5269 80.4751 85.732 83.5671 88.513 86.9121C91.209 90.1551 93.4049 93.7611 95.1359 97.6041C98.5789 105.249 100.154 113.694 99.439 122.062C98.894 122.462 98.257 122.706 97.479 122.682C94.597 122.593 93.137 119.629 92.6 117.203C92.048 114.709 91.814 112.169 91.174 109.687C89.838 104.509 87.57 99.6751 84.65 95.2051C83.21 93.0001 81.647 90.8801 80.092 88.7561C78.495 86.5751 76.501 83.8011 77.269 80.9421ZM106.995 77.2711C111.083 78.5821 114.13 82.4381 115.146 86.5471C115.721 88.8721 115.722 91.2631 115.373 93.6151C110.954 89.4501 105.818 85.8621 100.646 82.7041C97.919 81.0391 95.099 79.5261 92.203 78.1771C90.545 77.4051 88.6909 76.5091 86.8089 76.1021C88.2559 76.0051 89.618 75.9931 90.677 75.9741C96.078 75.8751 101.654 76.3271 106.995 77.2711Z" fill="#261E42"/>
<path d="M71.526 51.2831C71.513 52.2381 70.949 53.2562 70.008 53.5792C69.085 53.8962 68.011 53.3651 67.471 52.6091C66.893 51.8001 66.832 50.7011 67.319 49.8351C67.804 48.9721 68.702 48.5241 69.67 48.7951C70.78 49.1051 71.511 50.1491 71.526 51.2831C71.528 51.4111 72.253 51.3011 72.25 51.0891C72.234 49.9001 71.44 48.8551 70.298 48.5191C69.141 48.1781 67.715 48.5821 66.928 49.5011C66.154 50.4061 66.037 51.7481 66.708 52.7471C67.395 53.7722 68.638 54.1442 69.813 53.8832C71.166 53.5822 72.23 52.5171 72.25 51.0891C72.252 50.9671 71.529 51.0671 71.526 51.2831Z" fill="#261E42"/>
<path d="M70.3199 46.5071C72.2499 37.9211 75.2789 29.5791 79.4649 21.8321C81.5149 18.0381 83.8269 14.3851 86.3869 10.9141C89.0659 7.28212 92.0999 4.03112 95.1239 0.696119C95.4279 0.361119 94.9609 -0.107879 94.6269 0.199121C89.6199 4.79112 85.3959 10.5631 81.8179 16.3101C78.1869 22.1401 75.1909 28.3921 72.9619 34.8901C71.6739 38.6441 70.6749 42.5021 69.9339 46.4001C69.8859 46.6511 70.2629 46.7611 70.3199 46.5071Z" fill="#261E42"/>
<path d="M68.7299 46.4011C66.1389 32.7791 60.1389 19.8711 51.7009 8.88912C49.3629 5.84612 46.8699 2.79712 44.0369 0.199121C43.7019 -0.107879 43.2359 0.361119 43.5399 0.696119C46.5639 4.03112 49.5979 7.28212 52.2769 10.9141C54.8369 14.3851 57.1489 18.0371 59.1989 21.8321C63.3849 29.5791 66.4139 37.9211 68.3439 46.5071C68.4009 46.7611 68.7769 46.6521 68.7299 46.4011Z" fill="#261E42"/>
<path d="M71.5261 62.3221C71.5131 64.0421 71.3001 66.3181 70.0691 67.6571C68.8341 69.0001 67.7301 66.4711 67.4501 65.5381C66.8511 63.5451 66.8251 61.2971 67.3091 59.2781C67.5341 58.3411 68.3801 55.5841 69.7751 56.6611C70.4401 57.1741 70.7971 58.0511 71.0381 58.8281C71.3901 59.9571 71.5171 61.1431 71.5261 62.3221C71.5271 62.5061 72.2521 62.3811 72.2501 62.1281C72.2401 60.8131 72.0871 59.4771 71.6281 58.2381C71.3501 57.4861 70.9251 56.6201 70.1901 56.2181C68.7261 55.4171 67.4671 56.9611 66.9751 58.1621C66.0231 60.4851 66.0081 63.4361 66.7501 65.8161C67.1721 67.1691 68.1661 68.9621 69.8551 68.2811C70.7001 67.9411 71.2091 67.0961 71.5381 66.2891C72.0741 64.9761 72.2391 63.5361 72.2501 62.1281C72.2521 61.9471 71.5281 62.0671 71.5261 62.3221Z" fill="#261E42"/>
<path d="M71.247 90.787C71.242 94.209 71.148 97.634 70.876 101.047C70.701 103.25 70.511 105.507 69.968 107.657C69.867 108.056 69.745 108.947 69.382 109.21C69.211 109.333 69.547 109.315 69.368 109.223C69.303 109.189 69.23 109.045 69.196 108.985C69.04 108.706 68.939 108.402 68.844 108.097C68.242 106.159 68.065 104.055 67.878 102.045C67.256 95.356 67.248 88.556 67.686 81.855C67.846 79.405 68.041 76.922 68.546 74.514C68.682 73.864 68.872 73.25 69.098 72.628C69.127 72.548 69.21 72.358 69.281 72.306C69.458 72.177 69.108 72.209 69.295 72.293C69.478 72.375 69.591 72.782 69.658 72.946C70.48 74.934 70.588 77.358 70.784 79.47C71.134 83.232 71.241 87.013 71.247 90.787C71.247 91.162 71.981 91.05 71.98 90.73C71.974 86.91 71.862 83.083 71.509 79.278C71.308 77.115 71.232 74.494 70.273 72.493C69.889 71.691 69.144 71.433 68.576 72.243C67.559 73.693 67.507 76.163 67.313 77.837C66.428 85.452 66.452 93.286 67.043 100.921C67.236 103.421 67.369 106.146 68.2 108.537C68.453 109.266 69.018 110.279 69.871 109.54C70.36 109.117 70.523 108.291 70.676 107.698C71.016 106.384 71.194 105.025 71.35 103.679C71.848 99.386 71.973 95.047 71.98 90.729C71.981 90.356 71.248 90.467 71.247 90.787Z" fill="#261E42"/>
</svg>
